# xmcd
# 
# Track frame offsets:
#     150
#     10050
#     30150
#     41475
#     51525
#     63900
#     78750
#     93000
#     103425
#     119925
#     133125
#     155775
#     167775
#     178500
#     189525
#     205275
# 
# Disc length: 2872
# 
# Revision: 19
# Processed by: cddbd v1.5.2PL0 Copyright (c) Steve Scherf et al.
# Submitted via: fre:ac v1.0.17
# 
DISCID=dc0b3610
DTITLE=Various Artist - Medias Affenstarke Oldtimer CD 2
DYEAR=1989
DGENRE=Oldies
TTITLE0=The Searchers - Needles And Pins
TTITLE1=The Animals - The House Of The Rising Sun
TTITLE2=Buddy Holly - Peggy Sue
TTITLE3=The Kinks - You Really Got Me
TTITLE4=Spencer Davis Group - Keep On Running
TTITLE5=The Mamas And The Papas - Monday, Monday
TTITLE6=Walker Brothers - The Sun Ain't Gonna Shine Anymore
TTITLE7=The Byrds - Mr. Tambourine Man
TTITLE8=The Righteous Brothers - You’Ve Lost That Lovin’ Feelin’
TTITLE9=Roy Orbison - Oh, Pretty Woman
TTITLE10=Donovan - Catch The Wind
TTITLE11=The Lovin’ Spoonful - Summer In The City
TTITLE12=Manfred Mann - Do Wah Diddy Diddy
TTITLE13=The Beach Boys - Surfin’ USA
TTITLE14=Gene Pitney - Something's Gotten Hold Of My Heart
TTITLE15=Louis Armstrong - What A Wonderful World
EXTD=YEAR: 1989
EXTT0=
EXTT1=
EXTT2=
EXTT3=
EXTT4=
EXTT5=
EXTT6=
EXTT7=
EXTT8=
EXTT9=
EXTT10=
EXTT11=
EXTT12=
EXTT13=
EXTT14=
EXTT15=
PLAYORDER=
